<?xml version="1.0" ?><svg enable-background="new 0 0 128 128" id="Слой_1" version="1.1" viewBox="0 0 128 128" xml:space="preserve" xmlns="http://www.w3.org/2000/svg" xmlns:xlink="http://www.w3.org/1999/xlink"><g><g><path d="M55.5,104C49.1586914,104,44,97.2714844,44,89s5.1586914-15,11.5-15S67,80.7285156,67,89    S61.8413086,104,55.5,104z M55.5,78c-4.0654297,0-7.5,5.0371094-7.5,11s3.4345703,11,7.5,11S63,94.9628906,63,89    S59.5654297,78,55.5,78z" fill="#3399CC"/></g><g><path d="M55.5,56C49.1586914,56,44,49.2709961,44,41s5.1586914-15,11.5-15S67,32.7290039,67,41    S61.8413086,56,55.5,56z M55.5,30c-4.0654297,0-7.5,5.0375977-7.5,11s3.4345703,11,7.5,11S63,46.9624023,63,41    S59.5654297,30,55.5,30z" fill="#3399CC"/></g><g><path d="M55.9985352,78c-0.4042969,0-0.8120117-0.1220703-1.1655273-0.3759766    c-0.8969727-0.6445312-1.1015625-1.8935547-0.4570312-2.7910156c5.7470703-7.9990234,2.8310547-17.1640625,0.3222656-19.3144531    c-0.8383789-0.71875-0.9355469-1.9814453-0.2167969-2.8203125c0.7197266-0.8378906,1.980957-0.9350586,2.8203125-0.2167969    c4.5566406,3.9057617,6.9477539,15.4638672,0.3222656,24.6855469C57.2333984,77.7109375,56.6206055,78,55.9985352,78z" fill="#3399CC"/></g><g><path d="M79.5341797,83.84375c-0.1743164,0-0.3520508-0.0234375-0.5288086-0.0722656    c-1.0654297-0.2910156-1.6928711-1.390625-1.4013672-2.4560547C79.1713867,75.5859375,80,68.9072266,80,62    c0-14.4130859-4.7299805-26.3930664-12.34375-31.2646484c-3.7851562-2.421875-7.8730469-2.7387695-11.8183594-0.9194336    c-1.0029297,0.4633789-2.1918945,0.0253906-2.6538086-0.9780273c-0.4628906-1.0024414-0.0249023-2.190918,0.9780273-2.6538086    c5.1708984-2.3867188,10.7304688-1.9667969,15.6499023,1.1816406C78.5634766,32.965332,84,46.2363281,84,62    c0,7.2578125-0.8774414,14.3027344-2.5375977,20.3701172C81.2192383,83.2597656,80.4130859,83.8427734,79.5341797,83.84375z" fill="#3399CC"/></g><g><path d="M73.9199219,96C73.3896484,96,72.8798828,95.7900391,72.5,95.4101562    C72.1298828,95.0400391,71.9199219,94.5195312,71.9199219,94c0-0.5302734,0.2099609-1.0400391,0.5800781-1.4101562    c0.75-0.75,2.0898438-0.75,2.8295898,0c0.3803711,0.3701172,0.590332,0.8798828,0.590332,1.4101562    c0,0.5195312-0.2099609,1.0400391-0.590332,1.4101562C74.9599609,95.7900391,74.4399414,96,73.9199219,96z" fill="#3399CC"/></g><g><path d="M77.9199219,90c-0.5302734,0-1.0400391-0.2099609-1.4101562-0.5898438    C76.1298828,89.0400391,75.9199219,88.5302734,75.9199219,88s0.2099609-1.0400391,0.5898438-1.4101562    c0.7402344-0.75,2.0800781-0.75,2.8198242,0C79.699707,86.9599609,79.9199219,87.4697266,79.9199219,88    s-0.2202148,1.0400391-0.590332,1.4101562C78.9599609,89.7900391,78.449707,90,77.9199219,90z" fill="#3399CC"/></g><g><path d="M69.9199219,101c-0.5302734,0-1.0400391-0.2099609-1.4199219-0.5898438    C68.1298828,100.0400391,67.9199219,99.5195312,67.9199219,99c0-0.5302734,0.2099609-1.0400391,0.5800781-1.4101562    c0.75-0.75,2.0898438-0.75,2.8295898,0c0.3803711,0.3701172,0.590332,0.8896484,0.590332,1.4101562    c0,0.5195312-0.2099609,1.0400391-0.590332,1.4101562C70.9599609,100.7900391,70.4399414,101,69.9199219,101z" fill="#3399CC"/></g><g><path d="M64.9199219,104c-0.5302734,0-1.0400391-0.2099609-1.4199219-0.5898438    c-0.3701172-0.3701172-0.5800781-0.890625-0.5800781-1.4101562c0-0.5205078,0.2099609-1.0400391,0.5800781-1.4101562    c0.75-0.75,2.0898438-0.75,2.8295898,0c0.3803711,0.3701172,0.590332,0.8896484,0.590332,1.4101562    c0,0.5195312-0.2099609,1.0400391-0.590332,1.4101562C65.9599609,103.7900391,65.4399414,104,64.9199219,104z" fill="#3399CC"/></g></g></svg>